# xmcd
#
# Track frame offsets: 
#        150
#        28830
#        52670
#        72018
#        107727
#        131472
#        150454
#        171685
#        197383
#        212589
#        238019
#        261312
#        284484
#        300012
#
# Disc length: 4364 seconds
#
# Revision: 5
# Processed by: cddbd v1.5.2PL0 Copyright (c) Steve Scherf et al.
# Submitted via: ExactAudioCopyFreeDBPlugin 1.0
#
DISCID=bb110a0e
DTITLE=The Isley Brothers - Winner Takes All (Japanese Sleeve Paper Ed
DTITLE=it)
DYEAR=1979
DGENRE=Soul
TTITLE0=I Wanna Be With You (Parts 1  and 2)
TTITLE1=Liquid Love (Parts 1 and 2)
TTITLE2=Winner Takes All
TTITLE3=Life In The City (Parts 1 and @)
TTITLE4=It's A  Disco Night (Parts 1 and 2)
TTITLE5=(Can't You See) What You Do To Me?
TTITLE6=Let's Fall In Love (Parts 1 and 2)
TTITLE7=How Lucky I Am (Parts 1 and 2)
TTITLE8=You're The Key To My Heart
TTITLE9=You're Beside Me (Parts 1 and 2)
TTITLE10=Let Me In Your Life (Parts 1 and 2)
TTITLE11=Love Comes and Goes (Parts 1 and 2)
TTITLE12=Go For What You Know
TTITLE13=Mind Over Matter (Parts 1 and 2)
EXTD=
EXTT0=
EXTT1=
EXTT2=
EXTT3=
EXTT4=
EXTT5=
EXTT6=
EXTT7=
EXTT8=
EXTT9=
EXTT10=
EXTT11=
EXTT12=
EXTT13=
PLAYORDER=
